<svg width="180" height="269" viewBox="0 0 180 269" fill="none" xmlns="http://www.w3.org/2000/svg">
<g filter="url(#filter0_f)">
<ellipse cx="90" cy="258" rx="82" ry="3" fill="#222222" fill-opacity="0.34"/>
</g>
<rect x="10" width="161" height="258" rx="8" fill="white"/>
<path d="M10 8C10 3.58172 13.5817 0 18 0H163C167.418 0 171 3.58172 171 8V15H10V8Z" fill="#D8D8D8"/>
<circle cx="18" cy="8" r="3.5" fill="#FF5F5F" stroke="#D8D8D8"/>
<circle cx="27" cy="8" r="3.5" fill="#FFDD2D" stroke="#D8D8D8"/>
<circle cx="36" cy="8" r="3.5" fill="#73C855" stroke="#D8D8D8"/>
<line x1="72.5" y1="21" x2="72.5" y2="251" stroke="#DADCE0"/>
<line x1="157.5" y1="21" x2="157.5" y2="251" stroke="#DADCE0"/>
<path d="M23.166 141.007C23.166 142.029 22.974 142.8 22.5898 143.321C22.209 143.839 21.6279 144.098 20.8467 144.098C20.0785 144.098 19.499 143.845 19.1084 143.341C18.721 142.833 18.5225 142.083 18.5127 141.09V139.859C18.5127 138.837 18.7031 138.071 19.084 137.56C19.4681 137.049 20.0524 136.793 20.8369 136.793C21.6149 136.793 22.1943 137.042 22.5752 137.54C22.9593 138.038 23.1562 138.784 23.166 139.776V141.007ZM21.9795 139.679C21.9795 139.011 21.8883 138.523 21.7061 138.214C21.5238 137.901 21.234 137.745 20.8369 137.745C20.4495 137.745 20.1647 137.893 19.9824 138.189C19.8001 138.482 19.7041 138.941 19.6943 139.566V141.178C19.6943 141.842 19.7871 142.337 19.9727 142.662C20.1582 142.988 20.4495 143.15 20.8467 143.15C21.2275 143.15 21.5091 143.001 21.6914 142.701C21.8737 142.398 21.9697 141.926 21.9795 141.285V139.679ZM28.5484 138.766C28.5484 139.114 28.4588 139.425 28.2798 139.698C28.1008 139.968 27.8566 140.182 27.5474 140.338C27.9185 140.51 28.2033 140.746 28.4019 141.046C28.6037 141.345 28.7046 141.684 28.7046 142.062C28.7046 142.687 28.493 143.183 28.0698 143.551C27.6467 143.915 27.0835 144.098 26.3804 144.098C25.674 144.098 25.1076 143.914 24.6812 143.546C24.258 143.178 24.0464 142.683 24.0464 142.062C24.0464 141.681 24.1473 141.339 24.3491 141.036C24.551 140.733 24.8342 140.501 25.1988 140.338C24.8928 140.182 24.6502 139.968 24.4712 139.698C24.2954 139.425 24.2075 139.114 24.2075 138.766C24.2075 138.16 24.4029 137.68 24.7935 137.325C25.1841 136.97 25.7114 136.793 26.3755 136.793C27.0428 136.793 27.5718 136.97 27.9624 137.325C28.353 137.68 28.5484 138.16 28.5484 138.766ZM27.5181 142.003C27.5181 141.651 27.4123 141.368 27.2007 141.153C26.9924 140.935 26.7157 140.826 26.3706 140.826C26.0256 140.826 25.7489 140.934 25.5405 141.148C25.3355 141.363 25.2329 141.648 25.2329 142.003C25.2329 142.351 25.3338 142.63 25.5357 142.838C25.7407 143.046 26.0223 143.15 26.3804 143.15C26.7385 143.15 27.0168 143.049 27.2154 142.848C27.4172 142.646 27.5181 142.364 27.5181 142.003ZM27.3667 138.81C27.3667 138.5 27.2772 138.246 27.0982 138.048C26.9191 137.846 26.6782 137.745 26.3755 137.745C26.0728 137.745 25.8335 137.841 25.6577 138.033C25.482 138.222 25.3941 138.481 25.3941 138.81C25.3941 139.135 25.482 139.394 25.6577 139.586C25.8368 139.778 26.0777 139.874 26.3804 139.874C26.6831 139.874 26.9224 139.778 27.0982 139.586C27.2772 139.394 27.3667 139.135 27.3667 138.81ZM30.4004 142.75C30.6218 142.75 30.7927 142.813 30.9131 142.94C31.0336 143.064 31.0938 143.22 31.0938 143.409C31.0938 143.595 31.0336 143.749 30.9131 143.873C30.7927 143.993 30.6218 144.054 30.4004 144.054C30.1888 144.054 30.0212 143.993 29.8975 143.873C29.7738 143.753 29.712 143.598 29.712 143.409C29.712 143.22 29.7722 143.064 29.8926 142.94C30.0131 142.813 30.1823 142.75 30.4004 142.75ZM30.4004 138.604C30.6218 138.604 30.7927 138.668 30.9131 138.795C31.0336 138.919 31.0938 139.075 31.0938 139.264C31.0938 139.449 31.0336 139.604 30.9131 139.728C30.7927 139.848 30.6218 139.908 30.4004 139.908C30.1888 139.908 30.0212 139.848 29.8975 139.728C29.7738 139.607 29.712 139.452 29.712 139.264C29.712 139.075 29.7722 138.919 29.8926 138.795C30.0131 138.668 30.1823 138.604 30.4004 138.604ZM36.7545 141.007C36.7545 142.029 36.5624 142.8 36.1783 143.321C35.7974 143.839 35.2164 144.098 34.4351 144.098C33.6669 144.098 33.0875 143.845 32.6968 143.341C32.3095 142.833 32.1109 142.083 32.1011 141.09V139.859C32.1011 138.837 32.2916 138.071 32.6724 137.56C33.0565 137.049 33.6408 136.793 34.4254 136.793C35.2033 136.793 35.7828 137.042 36.1636 137.54C36.5477 138.038 36.7447 138.784 36.7545 139.776V141.007ZM35.5679 139.679C35.5679 139.011 35.4768 138.523 35.2945 138.214C35.1122 137.901 34.8225 137.745 34.4254 137.745C34.038 137.745 33.7532 137.893 33.5709 138.189C33.3886 138.482 33.2925 138.941 33.2828 139.566V141.178C33.2828 141.842 33.3755 142.337 33.5611 142.662C33.7466 142.988 34.038 143.15 34.4351 143.15C34.816 143.15 35.0976 143.001 35.2798 142.701C35.4621 142.398 35.5582 141.926 35.5679 141.285V139.679ZM42.293 141.007C42.293 142.029 42.101 142.8 41.7169 143.321C41.336 143.839 40.755 144.098 39.9737 144.098C39.2055 144.098 38.6261 143.845 38.2354 143.341C37.8481 142.833 37.6495 142.083 37.6397 141.09V139.859C37.6397 138.837 37.8302 138.071 38.211 137.56C38.5951 137.049 39.1794 136.793 39.9639 136.793C40.7419 136.793 41.3214 137.042 41.7022 137.54C42.0863 138.038 42.2833 138.784 42.293 139.776V141.007ZM41.1065 139.679C41.1065 139.011 41.0154 138.523 40.8331 138.214C40.6508 137.901 40.3611 137.745 39.9639 137.745C39.5766 137.745 39.2917 137.893 39.1095 138.189C38.9272 138.482 38.8311 138.941 38.8214 139.566V141.178C38.8214 141.842 38.9141 142.337 39.0997 142.662C39.2852 142.988 39.5766 143.15 39.9737 143.15C40.3546 143.15 40.6361 143.001 40.8184 142.701C41.0007 142.398 41.0968 141.926 41.1065 141.285V139.679Z" fill="#6C6C6C"/>
<line x1="48" y1="140.5" x2="165" y2="140.5" stroke="#DADCE0"/>
<path d="M23.166 231.007C23.166 232.029 22.974 232.8 22.5898 233.321C22.209 233.839 21.6279 234.098 20.8467 234.098C20.0785 234.098 19.499 233.845 19.1084 233.341C18.721 232.833 18.5225 232.083 18.5127 231.09V229.859C18.5127 228.837 18.7031 228.071 19.084 227.56C19.4681 227.049 20.0524 226.793 20.8369 226.793C21.6149 226.793 22.1943 227.042 22.5752 227.54C22.9593 228.038 23.1562 228.784 23.166 229.776V231.007ZM21.9795 229.679C21.9795 229.011 21.8883 228.523 21.7061 228.214C21.5238 227.901 21.234 227.745 20.8369 227.745C20.4495 227.745 20.1647 227.893 19.9824 228.189C19.8001 228.482 19.7041 228.941 19.6943 229.566V231.178C19.6943 231.842 19.7871 232.337 19.9727 232.662C20.1582 232.988 20.4495 233.15 20.8467 233.15C21.2275 233.15 21.5091 233.001 21.6914 232.701C21.8737 232.398 21.9697 231.926 21.9795 231.285V229.679ZM27.4351 231.026C27.0379 231.446 26.5741 231.656 26.0435 231.656C25.4185 231.656 24.9204 231.438 24.5493 231.002C24.1782 230.562 23.9927 229.986 23.9927 229.273C23.9927 228.805 24.0871 228.38 24.2759 227.999C24.4647 227.618 24.7333 227.322 25.0816 227.11C25.4299 226.899 25.8335 226.793 26.2925 226.793C27.0086 226.793 27.5767 227.06 27.9966 227.594C28.4165 228.128 28.6265 228.842 28.6265 229.737V230.069C28.6265 231.352 28.3368 232.33 27.7573 233.004C27.1779 233.678 26.3137 234.02 25.1646 234.029H25.023V233.048H25.1939C25.8937 233.038 26.4308 232.87 26.8052 232.545C27.1795 232.216 27.3895 231.71 27.4351 231.026ZM26.2925 230.729C26.5301 230.729 26.7531 230.66 26.9614 230.523C27.1698 230.387 27.3309 230.198 27.4448 229.957V229.493C27.4448 228.969 27.3374 228.548 27.1226 228.229C26.9077 227.91 26.6294 227.75 26.2876 227.75C25.9458 227.75 25.6724 227.892 25.4673 228.175C25.2655 228.455 25.1646 228.81 25.1646 229.239C25.1646 229.685 25.2671 230.045 25.4722 230.318C25.6773 230.592 25.9507 230.729 26.2925 230.729ZM30.4004 232.75C30.6218 232.75 30.7927 232.813 30.9131 232.94C31.0336 233.064 31.0938 233.22 31.0938 233.409C31.0938 233.595 31.0336 233.749 30.9131 233.873C30.7927 233.993 30.6218 234.054 30.4004 234.054C30.1888 234.054 30.0212 233.993 29.8975 233.873C29.7738 233.753 29.712 233.598 29.712 233.409C29.712 233.22 29.7722 233.064 29.8926 232.94C30.0131 232.813 30.1823 232.75 30.4004 232.75ZM30.4004 228.604C30.6218 228.604 30.7927 228.668 30.9131 228.795C31.0336 228.919 31.0938 229.075 31.0938 229.264C31.0938 229.449 31.0336 229.604 30.9131 229.728C30.7927 229.848 30.6218 229.908 30.4004 229.908C30.1888 229.908 30.0212 229.848 29.8975 229.728C29.7738 229.607 29.712 229.452 29.712 229.264C29.712 229.075 29.7722 228.919 29.8926 228.795C30.0131 228.668 30.1823 228.604 30.4004 228.604ZM36.7545 231.007C36.7545 232.029 36.5624 232.8 36.1783 233.321C35.7974 233.839 35.2164 234.098 34.4351 234.098C33.6669 234.098 33.0875 233.845 32.6968 233.341C32.3095 232.833 32.1109 232.083 32.1011 231.09V229.859C32.1011 228.837 32.2916 228.071 32.6724 227.56C33.0565 227.049 33.6408 226.793 34.4254 226.793C35.2033 226.793 35.7828 227.042 36.1636 227.54C36.5477 228.038 36.7447 228.784 36.7545 229.776V231.007ZM35.5679 229.679C35.5679 229.011 35.4768 228.523 35.2945 228.214C35.1122 227.901 34.8225 227.745 34.4254 227.745C34.038 227.745 33.7532 227.893 33.5709 228.189C33.3886 228.482 33.2925 228.941 33.2828 229.566V231.178C33.2828 231.842 33.3755 232.337 33.5611 232.662C33.7466 232.988 34.038 233.15 34.4351 233.15C34.816 233.15 35.0976 233.001 35.2798 232.701C35.4621 232.398 35.5582 231.926 35.5679 231.285V229.679ZM42.293 231.007C42.293 232.029 42.101 232.8 41.7169 233.321C41.336 233.839 40.755 234.098 39.9737 234.098C39.2055 234.098 38.6261 233.845 38.2354 233.341C37.8481 232.833 37.6495 232.083 37.6397 231.09V229.859C37.6397 228.837 37.8302 228.071 38.211 227.56C38.5951 227.049 39.1794 226.793 39.9639 226.793C40.7419 226.793 41.3214 227.042 41.7022 227.54C42.0863 228.038 42.2833 228.784 42.293 229.776V231.007ZM41.1065 229.679C41.1065 229.011 41.0154 228.523 40.8331 228.214C40.6508 227.901 40.3611 227.745 39.9639 227.745C39.5766 227.745 39.2917 227.893 39.1095 228.189C38.9272 228.482 38.8311 228.941 38.8214 229.566V231.178C38.8214 231.842 38.9141 232.337 39.0997 232.662C39.2852 232.988 39.5766 233.15 39.9737 233.15C40.3546 233.15 40.6361 233.001 40.8184 232.701C41.0007 232.398 41.0968 231.926 41.1065 231.285V229.679Z" fill="#6C6C6C"/>
<line x1="48" y1="230.5" x2="165" y2="230.5" stroke="#DADCE0"/>
<path d="M23.166 51.0068C23.166 52.029 22.974 52.8005 22.5898 53.3213C22.209 53.8389 21.6279 54.0977 20.8467 54.0977C20.0785 54.0977 19.499 53.8454 19.1084 53.3408C18.721 52.833 18.5225 52.0827 18.5127 51.0898V49.8594C18.5127 48.8372 18.7031 48.0706 19.084 47.5596C19.4681 47.0485 20.0524 46.793 20.8369 46.793C21.6149 46.793 22.1943 47.042 22.5752 47.54C22.9593 48.0381 23.1562 48.7835 23.166 49.7764V51.0068ZM21.9795 49.6787C21.9795 49.0114 21.8883 48.5231 21.7061 48.2139C21.5238 47.9014 21.234 47.7451 20.8369 47.7451C20.4495 47.7451 20.1647 47.8932 19.9824 48.1895C19.8001 48.4824 19.7041 48.9414 19.6943 49.5664V51.1777C19.6943 51.8418 19.7871 52.3366 19.9727 52.6621C20.1582 52.9876 20.4495 53.1504 20.8467 53.1504C21.2275 53.1504 21.5091 53.0007 21.6914 52.7012C21.8737 52.3984 21.9697 51.9264 21.9795 51.2852V49.6787ZM28.8023 47.5498L25.9605 54H24.7154L27.5523 47.8428H23.8755V46.8906H28.8023V47.5498ZM30.4004 52.75C30.6218 52.75 30.7927 52.8135 30.9131 52.9404C31.0336 53.0641 31.0938 53.2204 31.0938 53.4092C31.0938 53.5947 31.0336 53.7493 30.9131 53.873C30.7927 53.9935 30.6218 54.0537 30.4004 54.0537C30.1888 54.0537 30.0212 53.9935 29.8975 53.873C29.7738 53.7526 29.712 53.598 29.712 53.4092C29.712 53.2204 29.7722 53.0641 29.8926 52.9404C30.0131 52.8135 30.1823 52.75 30.4004 52.75ZM30.4004 48.6045C30.6218 48.6045 30.7927 48.668 30.9131 48.7949C31.0336 48.9186 31.0938 49.0749 31.0938 49.2637C31.0938 49.4492 31.0336 49.6038 30.9131 49.7275C30.7927 49.848 30.6218 49.9082 30.4004 49.9082C30.1888 49.9082 30.0212 49.848 29.8975 49.7275C29.7738 49.6071 29.712 49.4525 29.712 49.2637C29.712 49.0749 29.7722 48.9186 29.8926 48.7949C30.0131 48.668 30.1823 48.6045 30.4004 48.6045ZM36.7545 51.0068C36.7545 52.029 36.5624 52.8005 36.1783 53.3213C35.7974 53.8389 35.2164 54.0977 34.4351 54.0977C33.6669 54.0977 33.0875 53.8454 32.6968 53.3408C32.3095 52.833 32.1109 52.0827 32.1011 51.0898V49.8594C32.1011 48.8372 32.2916 48.0706 32.6724 47.5596C33.0565 47.0485 33.6408 46.793 34.4254 46.793C35.2033 46.793 35.7828 47.042 36.1636 47.54C36.5477 48.0381 36.7447 48.7835 36.7545 49.7764V51.0068ZM35.5679 49.6787C35.5679 49.0114 35.4768 48.5231 35.2945 48.2139C35.1122 47.9014 34.8225 47.7451 34.4254 47.7451C34.038 47.7451 33.7532 47.8932 33.5709 48.1895C33.3886 48.4824 33.2925 48.9414 33.2828 49.5664V51.1777C33.2828 51.8418 33.3755 52.3366 33.5611 52.6621C33.7466 52.9876 34.038 53.1504 34.4351 53.1504C34.816 53.1504 35.0976 53.0007 35.2798 52.7012C35.4621 52.3984 35.5582 51.9264 35.5679 51.2852V49.6787ZM42.293 51.0068C42.293 52.029 42.101 52.8005 41.7169 53.3213C41.336 53.8389 40.755 54.0977 39.9737 54.0977C39.2055 54.0977 38.6261 53.8454 38.2354 53.3408C37.8481 52.833 37.6495 52.0827 37.6397 51.0898V49.8594C37.6397 48.8372 37.8302 48.0706 38.211 47.5596C38.5951 47.0485 39.1794 46.793 39.9639 46.793C40.7419 46.793 41.3214 47.042 41.7022 47.54C42.0863 48.0381 42.2833 48.7835 42.293 49.7764V51.0068ZM41.1065 49.6787C41.1065 49.0114 41.0154 48.5231 40.8331 48.2139C40.6508 47.9014 40.3611 47.7451 39.9639 47.7451C39.5766 47.7451 39.2917 47.8932 39.1095 48.1895C38.9272 48.4824 38.8311 48.9414 38.8214 49.5664V51.1777C38.8214 51.8418 38.9141 52.3366 39.0997 52.6621C39.2852 52.9876 39.5766 53.1504 39.9737 53.1504C40.3546 53.1504 40.6361 53.0007 40.8184 52.7012C41.0007 52.3984 41.0968 51.9264 41.1065 51.2852V49.6787Z" fill="#6C6C6C"/>
<line x1="48" y1="50.5" x2="165" y2="50.5" stroke="#DADCE0"/>
<rect x="72" y="50" width="76" height="180" rx="4" fill="#4688F1"/>
<path d="M84.8193 64.9873H81.958V68H80.7227V60.8906H85.2393V61.8867H81.958V64.001H84.8193V64.9873ZM85.6314 65.3096C85.6314 64.792 85.7339 64.3265 85.939 63.9131C86.1441 63.4964 86.4321 63.1774 86.8032 62.9561C87.1743 62.7314 87.6008 62.6191 88.0825 62.6191C88.7954 62.6191 89.3732 62.8486 89.8159 63.3076C90.2619 63.7666 90.5028 64.3753 90.5386 65.1338L90.5435 65.4121C90.5435 65.9329 90.4426 66.3984 90.2407 66.8086C90.0422 67.2188 89.7557 67.5361 89.3814 67.7607C89.0103 67.9854 88.5806 68.0977 88.0923 68.0977C87.3469 68.0977 86.7495 67.8503 86.3003 67.3555C85.8543 66.8574 85.6314 66.195 85.6314 65.3682V65.3096ZM86.8179 65.4121C86.8179 65.9557 86.9302 66.3822 87.1548 66.6914C87.3794 66.9974 87.6919 67.1504 88.0923 67.1504C88.4927 67.1504 88.8036 66.9941 89.0249 66.6816C89.2495 66.3691 89.3618 65.9118 89.3618 65.3096C89.3618 64.7757 89.2463 64.3525 89.0152 64.04C88.7873 63.7275 88.4764 63.5713 88.0825 63.5713C87.6952 63.5713 87.3876 63.7259 87.1597 64.0352C86.9318 64.3411 86.8179 64.8001 86.8179 65.4121ZM93.5723 67.1504C93.8685 67.1504 94.1143 67.0641 94.3096 66.8916C94.5049 66.7191 94.6091 66.5059 94.6221 66.252H95.7403C95.7273 66.5807 95.6247 66.8883 95.4327 67.1748C95.2406 67.458 94.9802 67.6826 94.6514 67.8486C94.3226 68.0146 93.9678 68.0977 93.587 68.0977C92.848 68.0977 92.2621 67.8584 91.8291 67.3799C91.3962 66.9014 91.1797 66.2406 91.1797 65.3975V65.2754C91.1797 64.4714 91.3946 63.8285 91.8243 63.3467C92.2539 62.8617 92.8399 62.6191 93.5821 62.6191C94.2103 62.6191 94.7214 62.8031 95.1153 63.1709C95.5124 63.5355 95.7207 64.0156 95.7403 64.6113H94.6221C94.6091 64.3086 94.5049 64.0596 94.3096 63.8643C94.1176 63.6689 93.8718 63.5713 93.5723 63.5713C93.1882 63.5713 92.892 63.7113 92.6836 63.9912C92.4753 64.2679 92.3695 64.6895 92.3663 65.2559V65.4463C92.3663 66.0192 92.4688 66.4473 92.6739 66.7305C92.8822 67.0104 93.1817 67.1504 93.5723 67.1504ZM99.692 67.4824C99.3436 67.8926 98.8489 68.0977 98.2076 68.0977C97.6347 68.0977 97.2001 67.93 96.9039 67.5947C96.6109 67.2594 96.4644 66.7744 96.4644 66.1396V62.7168H97.6509V66.125C97.6509 66.7956 97.9293 67.1309 98.4859 67.1309C99.0621 67.1309 99.4511 66.9242 99.6529 66.5107V62.7168H100.839V68H99.7212L99.692 67.4824ZM104.864 66.5645C104.864 66.3529 104.776 66.1917 104.601 66.0811C104.428 65.9704 104.14 65.8727 103.736 65.7881C103.333 65.7035 102.996 65.596 102.726 65.4658C102.133 65.1794 101.837 64.7643 101.837 64.2207C101.837 63.765 102.029 63.3841 102.413 63.0781C102.797 62.7721 103.286 62.6191 103.878 62.6191C104.51 62.6191 105.019 62.7754 105.406 63.0879C105.797 63.4004 105.992 63.8057 105.992 64.3037H104.806C104.806 64.0758 104.721 63.887 104.552 63.7373C104.383 63.5843 104.158 63.5078 103.878 63.5078C103.618 63.5078 103.404 63.568 103.238 63.6885C103.076 63.8089 102.994 63.9701 102.994 64.1719C102.994 64.3542 103.071 64.4958 103.224 64.5967C103.377 64.6976 103.686 64.8001 104.151 64.9043C104.617 65.0052 104.982 65.1273 105.245 65.2705C105.512 65.4105 105.709 65.5798 105.836 65.7783C105.966 65.9769 106.031 66.2178 106.031 66.501C106.031 66.9762 105.834 67.362 105.441 67.6582C105.047 67.9512 104.531 68.0977 103.893 68.0977C103.46 68.0977 103.074 68.0195 102.735 67.8633C102.397 67.707 102.133 67.4922 101.944 67.2188C101.756 66.9453 101.661 66.6507 101.661 66.335H102.814C102.83 66.6149 102.936 66.8314 103.131 66.9844C103.326 67.1341 103.585 67.209 103.907 67.209C104.22 67.209 104.457 67.1504 104.62 67.0332C104.783 66.9128 104.864 66.7565 104.864 66.5645ZM80.7227 81V73.8906H83.1592C83.9632 73.8906 84.5752 74.0518 84.9951 74.374C85.415 74.6963 85.625 75.1764 85.625 75.8145C85.625 76.14 85.5371 76.4329 85.3613 76.6934C85.1855 76.9538 84.9284 77.1556 84.5898 77.2988C84.974 77.403 85.2702 77.5999 85.4785 77.8896C85.6901 78.1761 85.7959 78.5212 85.7959 78.9248C85.7959 79.5921 85.5811 80.1048 85.1514 80.4629C84.7249 80.821 84.113 81 83.3154 81H80.7227ZM81.958 77.792V80.0137H83.3301C83.7174 80.0137 84.0202 79.9176 84.2383 79.7256C84.4564 79.5335 84.5654 79.2666 84.5654 78.9248C84.5654 78.1859 84.1878 77.8083 83.4326 77.792H81.958ZM81.958 76.8838H83.1689C83.5531 76.8838 83.8525 76.7975 84.0674 76.625C84.2855 76.4492 84.3945 76.2018 84.3945 75.8828C84.3945 75.5312 84.2936 75.2773 84.0918 75.1211C83.8932 74.9648 83.5824 74.8867 83.1592 74.8867H81.958V76.8838ZM88.0337 81H86.8472V73.5H88.0337V81ZM88.9629 78.3096C88.9629 77.792 89.0655 77.3265 89.2705 76.9131C89.4756 76.4964 89.7637 76.1774 90.1348 75.9561C90.5059 75.7314 90.9323 75.6191 91.4141 75.6191C92.127 75.6191 92.7048 75.8486 93.1475 76.3076C93.5935 76.7666 93.8343 77.3753 93.8702 78.1338L93.875 78.4121C93.875 78.9329 93.7741 79.3984 93.5723 79.8086C93.3737 80.2188 93.0873 80.5361 92.7129 80.7607C92.3418 80.9854 91.9121 81.0977 91.4239 81.0977C90.6784 81.0977 90.0811 80.8503 89.6319 80.3555C89.1859 79.8574 88.9629 79.195 88.9629 78.3682V78.3096ZM90.1495 78.4121C90.1495 78.9557 90.2618 79.3822 90.4864 79.6914C90.711 79.9974 91.0235 80.1504 91.4239 80.1504C91.8243 80.1504 92.1351 79.9941 92.3565 79.6816C92.5811 79.3691 92.6934 78.9118 92.6934 78.3096C92.6934 77.7757 92.5778 77.3525 92.3467 77.04C92.1189 76.7275 91.808 76.5713 91.4141 76.5713C91.0267 76.5713 90.7191 76.7259 90.4913 77.0352C90.2634 77.3411 90.1495 77.8001 90.1495 78.4121ZM96.9039 80.1504C97.2001 80.1504 97.4459 80.0641 97.6412 79.8916C97.8365 79.7191 97.9407 79.5059 97.9537 79.252H99.0718C99.0588 79.5807 98.9563 79.8883 98.7642 80.1748C98.5722 80.458 98.3117 80.6826 97.983 80.8486C97.6542 81.0146 97.2994 81.0977 96.9185 81.0977C96.1796 81.0977 95.5936 80.8584 95.1607 80.3799C94.7278 79.9014 94.5113 79.2406 94.5113 78.3975V78.2754C94.5113 77.4714 94.7261 76.8285 95.1558 76.3467C95.5855 75.8617 96.1714 75.6191 96.9136 75.6191C97.5419 75.6191 98.053 75.8031 98.4468 76.1709C98.844 76.5355 99.0523 77.0156 99.0718 77.6113H97.9537C97.9407 77.3086 97.8365 77.0596 97.6412 76.8643C97.4491 76.6689 97.2033 76.5713 96.9039 76.5713C96.5198 76.5713 96.2235 76.7113 96.0152 76.9912C95.8069 77.2679 95.7011 77.6895 95.6978 78.2559V78.4463C95.6978 79.0192 95.8004 79.4473 96.0054 79.7305C96.2138 80.0104 96.5132 80.1504 96.9039 80.1504ZM101.539 78.7344L101.012 79.2764V81H99.8253V73.5H101.012V77.8262L101.383 77.3623L102.843 75.7168H104.269L102.306 77.9189L104.479 81H103.107L101.539 78.7344Z" fill="white"/>
<circle cx="72" cy="225" r="6" fill="#E8453C"/>
<line x1="76" y1="225" x2="157" y2="225" stroke="#E8453C" stroke-width="2"/>
<defs>
<filter id="filter0_f" x="0" y="247" width="180" height="22" filterUnits="userSpaceOnUse" color-interpolation-filters="sRGB">
<feFlood flood-opacity="0" result="BackgroundImageFix"/>
<feBlend mode="normal" in="SourceGraphic" in2="BackgroundImageFix" result="shape"/>
<feGaussianBlur stdDeviation="4" result="effect1_foregroundBlur"/>
</filter>
</defs>
</svg>
