<svg width="180" height="77" viewBox="0 0 180 77" fill="none" xmlns="http://www.w3.org/2000/svg">
<g filter="url(#filter0_f)">
<ellipse cx="90" cy="66" rx="82" ry="3" fill="#222222" fill-opacity="0.34"/>
</g>
<path d="M27 2C27 0.89543 27.8954 0 29 0H148C149.105 0 150 0.895431 150 2V65H27V2Z" fill="white"/>
<path d="M65.7898 41.2599C63.9351 41.2599 62.4705 40.8006 61.3958 39.8819C60.3385 38.9459 59.7925 37.6719 59.7578 36.0599H62.0978C62.0978 37.0306 62.4185 37.7932 63.0598 38.3479C63.7185 38.9026 64.6285 39.1799 65.7898 39.1799C66.8818 39.1799 67.7311 38.9112 68.3378 38.3739C68.9618 37.8192 69.2738 37.0652 69.2738 36.1119C69.2738 35.3492 69.0658 34.6819 68.6498 34.1099C68.2338 33.5379 67.6531 33.1392 66.9078 32.9139L64.3338 32.1079C63.0338 31.7092 62.0285 31.0506 61.3178 30.1319C60.6245 29.1959 60.2778 28.0866 60.2778 26.8039C60.2778 25.7986 60.5031 24.9146 60.9538 24.1519C61.4218 23.3892 62.0718 22.7999 62.9038 22.3839C63.7531 21.9506 64.7325 21.7339 65.8418 21.7339C67.5058 21.7339 68.8318 22.2019 69.8198 23.1379C70.8251 24.0566 71.3451 25.2872 71.3798 26.8299H69.0398C69.0398 25.8939 68.7538 25.1572 68.1818 24.6199C67.6271 24.0826 66.8385 23.8139 65.8158 23.8139C64.8105 23.8139 64.0218 24.0652 63.4498 24.5679C62.8951 25.0532 62.6178 25.7292 62.6178 26.5959C62.6178 27.3759 62.8258 28.0519 63.2418 28.6239C63.6578 29.1959 64.2558 29.6032 65.0358 29.8459L67.6358 30.6779C68.9011 31.0766 69.8805 31.7526 70.5738 32.7059C71.2671 33.6592 71.6138 34.7772 71.6138 36.0599C71.6138 37.0826 71.3711 37.9926 70.8858 38.7899C70.4005 39.5699 69.7158 40.1766 68.8318 40.6099C67.9478 41.0432 66.9338 41.2599 65.7898 41.2599Z" fill="black"/>
<path d="M80.8987 41.2599C79.2 41.2599 77.8567 40.7746 76.8687 39.8039C75.8807 38.8332 75.3867 37.4986 75.3867 35.7999V27.2199C75.3867 25.5212 75.8807 24.1866 76.8687 23.2159C77.8567 22.2452 79.2 21.7599 80.8987 21.7599C82.5973 21.7599 83.9407 22.2452 84.9287 23.2159C85.9167 24.1866 86.4107 25.5126 86.4107 27.1939V35.7999C86.4107 37.4986 85.9167 38.8332 84.9287 39.8039C83.9407 40.7746 82.5973 41.2599 80.8987 41.2599ZM80.8987 39.1799C81.9213 39.1799 82.7013 38.8939 83.2387 38.3219C83.7933 37.7326 84.0707 36.8919 84.0707 35.7999V27.2199C84.0707 26.1279 83.7933 25.2959 83.2387 24.7239C82.7013 24.1346 81.9213 23.8399 80.8987 23.8399C79.876 23.8399 79.0873 24.1346 78.5327 24.7239C77.9953 25.2959 77.7267 26.1279 77.7267 27.2199V35.7999C77.7267 36.8919 77.9953 37.7326 78.5327 38.3219C79.0873 38.8939 79.876 39.1799 80.8987 39.1799Z" fill="black"/>
<path d="M96.1115 41.2599C94.4128 41.2599 93.0695 40.7746 92.0815 39.8039C91.0935 38.8332 90.5995 37.4986 90.5995 35.7999V27.2199C90.5995 25.5212 91.0935 24.1866 92.0815 23.2159C93.0695 22.2452 94.4128 21.7599 96.1115 21.7599C97.8102 21.7599 99.1535 22.2452 100.142 23.2159C101.13 24.1866 101.624 25.5126 101.624 27.1939V35.7999C101.624 37.4986 101.13 38.8332 100.142 39.8039C99.1535 40.7746 97.8102 41.2599 96.1115 41.2599ZM96.1115 39.1799C97.1342 39.1799 97.9142 38.8939 98.4515 38.3219C99.0062 37.7326 99.2835 36.8919 99.2835 35.7999V27.2199C99.2835 26.1279 99.0062 25.2959 98.4515 24.7239C97.9142 24.1346 97.1342 23.8399 96.1115 23.8399C95.0888 23.8399 94.3002 24.1346 93.7455 24.7239C93.2082 25.2959 92.9395 26.1279 92.9395 27.2199V35.7999C92.9395 36.8919 93.2082 37.7326 93.7455 38.3219C94.3002 38.8939 95.0888 39.1799 96.1115 39.1799Z" fill="black"/>
<path d="M105.864 40.9999V22.0199H108.984L114.782 38.2699C114.609 36.1899 114.522 34.3266 114.522 32.6799V22.0199H116.784V40.9999H113.664L107.892 24.7499C108.048 26.8299 108.126 28.6932 108.126 30.3399V40.9999H105.864Z" fill="black"/>
<defs>
<filter id="filter0_f" x="0" y="55" width="180" height="22" filterUnits="userSpaceOnUse" color-interpolation-filters="sRGB">
<feFlood flood-opacity="0" result="BackgroundImageFix"/>
<feBlend mode="normal" in="SourceGraphic" in2="BackgroundImageFix" result="shape"/>
<feGaussianBlur stdDeviation="4" result="effect1_foregroundBlur"/>
</filter>
</defs>
</svg>
