<svg width="142" height="16" viewBox="0 0 142 16" fill="none" xmlns="http://www.w3.org/2000/svg">
<path d="M7.42165 12.8242C4.89593 12.8242 3.20565 11.0562 3.20565 8.00595C3.20565 5.05281 4.89593 3.18767 7.42165 3.18767C9.2285 3.18767 10.6079 4.13967 11.2491 5.73281L13.7748 5.40253C12.8616 2.58538 10.4136 0.817383 7.42165 0.817383C3.59422 0.817383 0.679932 3.69281 0.679932 8.00595C0.679932 12.3191 3.59422 15.1945 7.42165 15.1945C10.3942 15.1945 12.8228 13.4654 13.7554 10.6871L11.2296 10.3568C10.5885 11.95 9.20908 12.8242 7.42165 12.8242Z" fill="#FF4954"/>
<path d="M22.1901 15.1945C26.3672 15.1945 29.2427 12.0277 29.2427 8.00595C29.2427 4.04253 26.3672 0.817383 22.1901 0.817383C18.0129 0.817383 15.1375 3.98424 15.1375 8.00595C15.1375 12.0277 18.0129 15.1945 22.1901 15.1945ZM22.1901 12.8242C19.5867 12.8242 17.6632 10.7454 17.6632 8.00595C17.6632 5.30538 19.5867 3.18767 22.1901 3.18767C24.7741 3.18767 26.7169 5.30538 26.7169 8.00595C26.7169 10.7454 24.5798 12.8242 22.1901 12.8242Z" fill="#FF4954"/>
<path d="M31.1835 1.01167V15.0002H33.6315V6.82081H33.6704L37.2841 15.0002H39.499L43.1127 6.82081H43.1516V15.0002H45.5995V1.01167H43.171L38.411 11.8917H38.3721L33.6121 1.01167H31.1835Z" fill="#FF4954"/>
<path d="M48.1266 1.01167V15.0002H50.5746V1.01167H48.1266Z" fill="#FF4954"/>
<path d="M64.6382 1.01167H62.1902V10.8037H62.1513L55.4485 1.01167H53.0976V15.0002H55.5456V5.20824H55.5845L62.2873 15.0002H64.6382V1.01167Z" fill="#FF4954"/>
<path d="M71.7343 7.20938V9.54081H76.844C76.708 11.4448 75.0372 12.8242 72.9389 12.8242C70.452 12.8242 68.6063 10.8814 68.6063 8.00595C68.6063 5.13053 70.452 3.18767 72.9389 3.18767C74.5515 3.18767 76.028 4.12024 76.572 5.57738L79.1172 5.2471C78.3595 2.56595 75.8532 0.817383 72.9389 0.817383C69.0532 0.817383 66.0806 3.77053 66.0806 8.00595C66.0806 12.2414 69.0532 15.1945 72.9389 15.1945C76.6303 15.1945 79.3309 12.7077 79.3309 9.11338V7.20938H71.7343Z" fill="#FF4954"/>
<path d="M96.354 10.998C96.354 8.31681 93.9837 7.52024 91.8465 7.0151C89.7288 6.50995 88.1162 6.27681 88.1162 4.78081C88.1162 3.77053 89.1848 3.01281 90.7197 3.01281C92.4488 3.01281 93.2843 4.00367 93.5563 5.18881H96.1985C95.8682 2.56595 93.6145 0.817383 90.6614 0.817383C87.3197 0.817383 85.5905 2.91567 85.5905 4.93624C85.5905 7.67567 87.8831 8.56938 90.1562 9.11338C92.1185 9.57967 93.8282 9.8711 93.8282 11.2311C93.8282 12.222 92.7791 12.9991 91.0888 12.9991C89.554 12.9991 88.33 12.3774 88.0385 10.6288H85.3574C85.5128 13.4848 87.7665 15.1945 91.1665 15.1945C94.2362 15.1945 96.354 13.6208 96.354 10.998Z" fill="#FF4954"/>
<path d="M104.762 15.1945C108.939 15.1945 111.814 12.0277 111.814 8.00595C111.814 4.04253 108.939 0.817383 104.762 0.817383C100.584 0.817383 97.709 3.98424 97.709 8.00595C97.709 12.0277 100.584 15.1945 104.762 15.1945ZM104.762 12.8242C102.158 12.8242 100.235 10.7454 100.235 8.00595C100.235 5.30538 102.158 3.18767 104.762 3.18767C107.346 3.18767 109.288 5.30538 109.288 8.00595C109.288 10.7454 107.151 12.8242 104.762 12.8242Z" fill="#FF4954"/>
<path d="M120.509 15.1945C124.686 15.1945 127.562 12.0277 127.562 8.00595C127.562 4.04253 124.686 0.817383 120.509 0.817383C116.332 0.817383 113.457 3.98424 113.457 8.00595C113.457 12.0277 116.332 15.1945 120.509 15.1945ZM120.509 12.8242C117.906 12.8242 115.982 10.7454 115.982 8.00595C115.982 5.30538 117.906 3.18767 120.509 3.18767C123.093 3.18767 125.036 5.30538 125.036 8.00595C125.036 10.7454 122.899 12.8242 120.509 12.8242Z" fill="#FF4954"/>
<path d="M141.043 1.01167H138.595V10.8037H138.556L131.854 1.01167H129.503V15.0002H131.951V5.20824H131.99L138.692 15.0002H141.043V1.01167Z" fill="#FF4954"/>
</svg>
