<?xml version="1.0" encoding="utf-8"?>
<!-- Generator: Adobe Illustrator 21.0.0, SVG Export Plug-In . SVG Version: 6.00 Build 0)  -->
<svg version="1.1" id="Layer_1" xmlns="http://www.w3.org/2000/svg" xmlns:xlink="http://www.w3.org/1999/xlink" x="0px" y="0px"
	 viewBox="0 0 128.6 31.6" style="enable-background:new 0 0 128.6 31.6;" xml:space="preserve">
<style type="text/css">
	.st0{fill:#FFFFFF;}
</style>
<title>logo</title>
<g>
	<g>
		<path class="st0" d="M5.9,1.2v21.1c0,1.3,0.2,2.1,0.5,2.5c0.4,0.4,1.1,0.6,2.2,0.6h0.2v0.9H0.3v-0.9h0.3c1.1,0,1.7-0.2,2.1-0.6
			c0.3-0.4,0.5-1.2,0.5-2.5V8c0-1.5-0.1-2.4-0.3-2.8C2.6,4.8,2.1,4.4,1.2,4L0.3,3.6V3.4L5.9,1.2z M15.1,8.9v13.4
			c0,1.3,0.2,2.1,0.5,2.5c0.3,0.4,1,0.6,2.1,0.6h0.2v0.9H9.4v-0.9h0.3c1,0,1.7-0.2,2-0.6c0.3-0.4,0.5-1.2,0.5-2.5v-6.7
			c0-1.5-0.1-2.5-0.3-2.8c-0.2-0.3-0.8-0.8-1.8-1.2l-0.8-0.4V11C9.4,11,15.1,8.9,15.1,8.9z M13.2,6.7c-0.6,0-1-0.2-1.4-0.6
			c-0.4-0.4-0.6-0.9-0.6-1.4c0-0.6,0.2-1,0.6-1.4c0.4-0.4,0.9-0.6,1.4-0.6c0.6,0,1,0.2,1.4,0.6c0.4,0.4,0.6,0.9,0.6,1.4
			c0,0.6-0.2,1.1-0.6,1.4C14.2,6.5,13.7,6.7,13.2,6.7z M25.6,26.8l-6.5-13.5c-0.7-1.3-1.2-2.1-1.5-2.5c-0.3-0.4-0.8-0.6-1.3-0.6
			h-0.2V9.3h7.1v0.9h-0.3c-1,0-1.5,0.2-1.5,0.8c0,0.3,0.3,1.1,0.8,2.3l4.6,9.6l4-9.6c0.4-1,0.6-1.7,0.6-2.1c0-0.6-0.5-0.9-1.6-0.9
			h-0.3V9.3h5.7v0.9H35c-0.5,0-0.9,0.2-1.3,0.6c-0.4,0.4-0.8,1.2-1.3,2.4l-5.9,13.5H25.6L25.6,26.8z M48.5,23.5v1.4
			c-2.2,1.3-4.4,1.9-6.5,1.9c-2.5,0-4.6-0.9-6.2-2.5c-1.6-1.7-2.4-3.8-2.4-6.4c0-2.6,0.8-4.7,2.3-6.4c1.5-1.7,3.5-2.6,5.8-2.6
			c2.1,0,3.7,0.7,4.9,2.1c1.2,1.4,1.8,3.4,1.8,5.8v0.5H36.6c0,0.4,0,0.6,0,0.7c0,2,0.6,3.6,1.9,5c1.2,1.3,2.8,2,4.6,2
			C44.9,24.9,46.6,24.4,48.5,23.5L48.5,23.5z M36.7,16.3h3.1c2.3,0,3.7-0.1,4.3-0.3c0.6-0.2,0.9-0.8,0.9-1.7c0-1.3-0.3-2.4-1-3.3
			c-0.7-0.8-1.5-1.3-2.5-1.3c-1.3,0-2.4,0.6-3.2,1.8C37.4,12.7,36.9,14.3,36.7,16.3z M62.3,26.8l-4.6-13.4c-0.7-2.1-1.4-3.1-2-3.1
			h-0.2V9.3H62v0.9h-0.2c-1.1,0-1.6,0.3-1.6,1c0,0.2,0.1,0.4,0.1,0.7c0.1,0.4,0.2,0.6,0.2,0.6l0.2,0.8l3.1,9.1l4.6-13.2h1l5.4,13.3
			l2.8-9.2c0.3-1,0.5-1.7,0.5-2.2c0-0.6-0.5-1-1.3-1h-0.2V9.3h4.7v0.9H81c-0.8,0-1.5,1-2.1,3.1l-4.2,13.4h-1l-5.5-13.7l-4.8,13.7
			C63.3,26.8,62.3,26.8,62.3,26.8z M88.4,26.8c-2.5,0-4.6-0.9-6.2-2.5c-1.6-1.7-2.4-3.8-2.4-6.5c0-2.6,0.8-4.8,2.4-6.5
			c1.6-1.7,3.7-2.5,6.2-2.5c2.5,0,4.6,0.9,6.2,2.5c1.6,1.7,2.4,3.9,2.4,6.5c0,2.6-0.8,4.8-2.4,6.5C93,26,90.9,26.8,88.4,26.8z
			 M88.4,25.7c1.5,0,2.8-0.7,3.8-2.2c1-1.5,1.4-3.4,1.4-5.8c0-2.4-0.5-4.3-1.4-5.7c-1-1.5-2.2-2.2-3.8-2.2c-1.6,0-2.8,0.7-3.7,2.2
			c-1,1.5-1.4,3.4-1.4,5.7c0,2.4,0.5,4.3,1.4,5.8C85.6,25,86.9,25.7,88.4,25.7z M102.6,13.6v8.7c0,1.3,0.2,2.1,0.6,2.5
			c0.4,0.4,1.2,0.6,2.5,0.6h0.2v1h-9v-0.9h0.3c1.1,0,1.8-0.2,2.1-0.6c0.4-0.4,0.5-1.2,0.5-2.5v-6.7c0-1.5-0.1-2.5-0.3-2.8
			c-0.2-0.4-0.8-0.8-1.7-1.2l-0.9-0.4V11l5.8-2.1v3.4c1-1.1,2-2,2.9-2.6c0.9-0.6,1.7-0.9,2.4-0.9c1.3,0,2.3,0.7,3.2,2l-2.3,2.5
			c-0.8-1.3-1.6-2-2.5-2c-0.8,0-1.9,0.7-3.4,2C102.9,13.3,102.6,13.6,102.6,13.6z M115.5,16.7v5.6c0,1.3,0.2,2.1,0.5,2.5
			c0.4,0.4,1,0.6,2.1,0.6h0.2v0.9h-8.5v-0.9h0.3c1,0,1.7-0.2,2-0.6c0.3-0.4,0.5-1.2,0.5-2.5V7.9c0-1.4-0.1-2.3-0.3-2.7
			c-0.2-0.4-0.7-0.8-1.6-1.2l-0.9-0.4V3.4l5.7-2.1L115.5,16.7l4.5-3.9c1.3-1.1,2-1.9,2.1-2.2c0-0.3-0.4-0.5-1.3-0.5h-0.2V9.3h6v0.9
			h-0.3c-0.7,0-2.2,0.9-4.5,2.8l-3.4,2.8l5.6,6.4c1.8,2.1,3.1,3.1,4,3.1h0.2v0.9H124C124,26.3,115.5,16.7,115.5,16.7z M51,1h2.7v30
			H51V1z"/>
	</g>
</g>
</svg>
