<svg id="Layer_1" data-name="Layer 1" xmlns="http://www.w3.org/2000/svg" viewBox="0 0 166 18"><defs><style>.cls-1,.cls-2{fill:#fff;}.cls-2{opacity:0.5;}</style></defs><title>timtim_horizontal1</title><path class="cls-1" d="M16.2,11.16a1.43,1.43,0,0,0,1,.3h1a.46.46,0,0,1,.46.46V13a.46.46,0,0,1-.46.46H17a3.49,3.49,0,0,1-2.46-.79,3.06,3.06,0,0,1-.85-2.35V6.7H12.57a.46.46,0,0,1-.46-.46V5.12a.46.46,0,0,1,.46-.46h1.12V1.89a.46.46,0,0,1,.46-.46h1.29a.47.47,0,0,1,.46.46V4.66H18.1a.46.46,0,0,1,.46.46V6.24a.46.46,0,0,1-.46.46H15.9v3.6A1.16,1.16,0,0,0,16.2,11.16Z"/><path class="cls-1" d="M22.55,1.57a.44.44,0,0,1,.14.32V3.22a.46.46,0,0,1-.46.46H20.76a.46.46,0,0,1-.46-.46V1.89a.46.46,0,0,1,.46-.46h1.46A.44.44,0,0,1,22.55,1.57Zm-.08,11.8a.44.44,0,0,1-.32.14H20.85a.46.46,0,0,1-.46-.46V5.12a.46.46,0,0,1,.46-.46h1.29a.46.46,0,0,1,.46.46V13A.44.44,0,0,1,22.46,13.36Z"/><path class="cls-1" d="M28.14,4.75a2.88,2.88,0,0,1,1.21-.26,3,3,0,0,1,2.82,1.44,3.11,3.11,0,0,1,1.21-1.05,3.39,3.39,0,0,1,1.54-.39,3,3,0,0,1,2.59,1.1,4.82,4.82,0,0,1,.79,2.88V13a.46.46,0,0,1-.46.46H36.56A.46.46,0,0,1,36.1,13V8.55A2.4,2.4,0,0,0,35.67,7a1.59,1.59,0,0,0-1.26-.48,1.61,1.61,0,0,0-1.2.48,2.15,2.15,0,0,0-.48,1.51V13a.46.46,0,0,1-.46.46H31a.46.46,0,0,1-.46-.46V8.55A2.4,2.4,0,0,0,30.1,7a1.8,1.8,0,0,0-2.47,0,2.25,2.25,0,0,0-.47,1.57V13a.46.46,0,0,1-.46.46H25.41a.46.46,0,0,1-.46-.46V5.12a.46.46,0,0,1,.46-.46H26.7a.46.46,0,0,1,.46.46v.39A2.75,2.75,0,0,1,28.14,4.75Z"/><path class="cls-1" d="M43.76,11.16a1.43,1.43,0,0,0,1,.3h1a.46.46,0,0,1,.46.46V13a.46.46,0,0,1-.46.46H44.56a3.49,3.49,0,0,1-2.46-.79,3.06,3.06,0,0,1-.85-2.35V6.7H40.13a.46.46,0,0,1-.46-.46V5.12a.46.46,0,0,1,.46-.46h1.12V1.89a.46.46,0,0,1,.46-.46H43a.47.47,0,0,1,.46.46V4.66h2.19a.46.46,0,0,1,.46.46V6.24a.46.46,0,0,1-.46.46H43.46v3.6A1.16,1.16,0,0,0,43.76,11.16Z"/><path class="cls-1" d="M50.11,1.57a.44.44,0,0,1,.14.32V3.22a.46.46,0,0,1-.46.46H48.32a.46.46,0,0,1-.46-.46V1.89a.46.46,0,0,1,.46-.46h1.46A.44.44,0,0,1,50.11,1.57ZM50,13.36a.44.44,0,0,1-.32.14H48.41a.46.46,0,0,1-.46-.46V5.12a.46.46,0,0,1,.46-.46H49.7a.46.46,0,0,1,.46.46V13A.44.44,0,0,1,50,13.36Z"/><path class="cls-1" d="M55.7,4.75a2.88,2.88,0,0,1,1.21-.26,3,3,0,0,1,2.82,1.44,3.11,3.11,0,0,1,1.21-1.05,3.39,3.39,0,0,1,1.54-.39,3,3,0,0,1,2.59,1.1,4.82,4.82,0,0,1,.79,2.88V13a.46.46,0,0,1-.46.46H64.11a.46.46,0,0,1-.46-.46V8.55A2.4,2.4,0,0,0,63.23,7,1.59,1.59,0,0,0,62,6.48a1.61,1.61,0,0,0-1.2.48,2.15,2.15,0,0,0-.48,1.51V13a.46.46,0,0,1-.46.46H58.54a.46.46,0,0,1-.46-.46V8.55A2.4,2.4,0,0,0,57.65,7a1.8,1.8,0,0,0-2.47,0,2.25,2.25,0,0,0-.47,1.57V13a.46.46,0,0,1-.46.46H53A.46.46,0,0,1,52.5,13V5.12A.46.46,0,0,1,53,4.66h1.29a.46.46,0,0,1,.46.46v.39A2.75,2.75,0,0,1,55.7,4.75Z"/><path class="cls-2" d="M70.34,16.27a.46.46,0,0,1-.46.46H68.58a.46.46,0,0,1-.46-.46V5.12a.46.46,0,0,1,.46-.46h1.29a.46.46,0,0,1,.46.46v.39a3.08,3.08,0,0,1,1-.71,3.6,3.6,0,0,1,1.58-.31A3.47,3.47,0,0,1,74.85,5a3.87,3.87,0,0,1,1.32,1.46,4.7,4.7,0,0,1,.53,2q0,.17,0,.6c0,.28,0,.48,0,.59a4.7,4.7,0,0,1-.53,2,3.86,3.86,0,0,1-1.32,1.46,3.47,3.47,0,0,1-1.95.55,3.56,3.56,0,0,1-1.56-.31,3.29,3.29,0,0,1-1-.71Zm3.6-9.11a2,2,0,0,0-1.55-.63A2,2,0,0,0,71,7a2.06,2.06,0,0,0-.65,1.4c0,.11,0,.33,0,.65s0,.53,0,.65A2.07,2.07,0,0,0,71,11.11a2,2,0,0,0,1.4.52,2,2,0,0,0,1.43-.51,2.34,2.34,0,0,0,.66-1.56c0-.23,0-.39,0-.48A2.76,2.76,0,0,0,73.94,7.16Z"/><path class="cls-2" d="M86.84,9.1q0,.44,0,.85a4.06,4.06,0,0,1-.63,1.89,3.83,3.83,0,0,1-1.49,1.34,4.94,4.94,0,0,1-4.3,0,3.83,3.83,0,0,1-1.49-1.34,4.06,4.06,0,0,1-.63-1.89c0-.14,0-.42,0-.85s0-.73,0-.87a4.09,4.09,0,0,1,.63-1.9A3.84,3.84,0,0,1,80.39,5a4.94,4.94,0,0,1,4.3,0,3.84,3.84,0,0,1,1.49,1.34,4.09,4.09,0,0,1,.63,1.9Q86.84,8.64,86.84,9.1ZM81.16,6.94a1.83,1.83,0,0,0-.67,1.38q0,.17,0,.77t0,.77a1.83,1.83,0,0,0,.67,1.38,2.56,2.56,0,0,0,2.77,0,1.83,1.83,0,0,0,.67-1.38q0-.34,0-.77t0-.77a1.83,1.83,0,0,0-.67-1.38,2.55,2.55,0,0,0-2.77,0Z"/><path class="cls-2" d="M91.42,7.15A2,2,0,0,0,91,8.62V13a.46.46,0,0,1-.46.46H89.22a.46.46,0,0,1-.46-.46V5.12a.46.46,0,0,1,.46-.46h1.29a.46.46,0,0,1,.46.46v.39a3,3,0,0,1,1-.65,3.52,3.52,0,0,1,1.29-.2H94a.46.46,0,0,1,.46.46V6.24A.46.46,0,0,1,94,6.7H92.89A2,2,0,0,0,91.42,7.15Z"/><path class="cls-1" d="M99.14,11.16a1.43,1.43,0,0,0,1,.3h1a.46.46,0,0,1,.46.46V13a.46.46,0,0,1-.46.46H100a3.49,3.49,0,0,1-2.46-.79,3.06,3.06,0,0,1-.85-2.35V6.7H95.51a.46.46,0,0,1-.46-.46V5.12a.46.46,0,0,1,.46-.46h1.12V1.89a.46.46,0,0,1,.46-.46h1.29a.47.47,0,0,1,.46.46V4.66H101a.46.46,0,0,1,.46.46V6.24a.46.46,0,0,1-.46.46H98.85v3.6A1.16,1.16,0,0,0,99.14,11.16Z"/><path class="cls-1" d="M105.49,1.57a.44.44,0,0,1,.14.32V3.22a.46.46,0,0,1-.46.46h-1.46a.46.46,0,0,1-.46-.46V1.89a.46.46,0,0,1,.46-.46h1.46A.44.44,0,0,1,105.49,1.57Zm-.08,11.8a.44.44,0,0,1-.32.14h-1.29a.46.46,0,0,1-.46-.46V5.12a.46.46,0,0,1,.46-.46h1.29a.46.46,0,0,1,.46.46V13A.44.44,0,0,1,105.41,13.36Z"/><path class="cls-1" d="M111.08,4.75a2.88,2.88,0,0,1,1.21-.26,3,3,0,0,1,2.82,1.44,3.11,3.11,0,0,1,1.21-1.05,3.39,3.39,0,0,1,1.54-.39,3,3,0,0,1,2.59,1.1,4.82,4.82,0,0,1,.79,2.88V13a.46.46,0,0,1-.46.46H119.5A.46.46,0,0,1,119,13V8.55A2.4,2.4,0,0,0,118.62,7a1.59,1.59,0,0,0-1.26-.48,1.61,1.61,0,0,0-1.2.48,2.15,2.15,0,0,0-.48,1.51V13a.46.46,0,0,1-.46.46h-1.29a.46.46,0,0,1-.46-.46V8.55A2.4,2.4,0,0,0,113,7a1.8,1.8,0,0,0-2.47,0,2.25,2.25,0,0,0-.47,1.57V13a.46.46,0,0,1-.46.46h-1.29a.46.46,0,0,1-.46-.46V5.12a.46.46,0,0,1,.46-.46h1.29a.46.46,0,0,1,.46.46v.39A2.75,2.75,0,0,1,111.08,4.75Z"/><path class="cls-1" d="M126.7,11.16a1.43,1.43,0,0,0,1,.3h1a.46.46,0,0,1,.46.46V13a.46.46,0,0,1-.46.46h-1.26a3.49,3.49,0,0,1-2.46-.79,3.06,3.06,0,0,1-.85-2.35V6.7h-1.12a.46.46,0,0,1-.46-.46V5.12a.46.46,0,0,1,.46-.46h1.12V1.89a.46.46,0,0,1,.46-.46h1.29a.47.47,0,0,1,.46.46V4.66h2.19a.46.46,0,0,1,.46.46V6.24a.46.46,0,0,1-.46.46H126.4v3.6A1.16,1.16,0,0,0,126.7,11.16Z"/><path class="cls-1" d="M133,1.57a.44.44,0,0,1,.14.32V3.22a.46.46,0,0,1-.46.46h-1.46a.46.46,0,0,1-.46-.46V1.89a.46.46,0,0,1,.46-.46h1.46A.44.44,0,0,1,133,1.57ZM133,13.36a.44.44,0,0,1-.32.14h-1.29a.46.46,0,0,1-.46-.46V5.12a.46.46,0,0,1,.46-.46h1.29a.46.46,0,0,1,.46.46V13A.44.44,0,0,1,133,13.36Z"/><path class="cls-1" d="M138.64,4.75a2.88,2.88,0,0,1,1.21-.26,3,3,0,0,1,2.82,1.44,3.11,3.11,0,0,1,1.21-1.05,3.39,3.39,0,0,1,1.54-.39A3,3,0,0,1,148,5.59a4.82,4.82,0,0,1,.79,2.88V13a.46.46,0,0,1-.46.46h-1.29a.46.46,0,0,1-.46-.46V8.55A2.4,2.4,0,0,0,146.17,7a1.59,1.59,0,0,0-1.26-.48,1.61,1.61,0,0,0-1.2.48,2.15,2.15,0,0,0-.48,1.51V13a.46.46,0,0,1-.46.46h-1.29A.46.46,0,0,1,141,13V8.55A2.4,2.4,0,0,0,140.6,7a1.8,1.8,0,0,0-2.47,0,2.25,2.25,0,0,0-.47,1.57V13a.46.46,0,0,1-.46.46H135.9a.46.46,0,0,1-.46-.46V5.12a.46.46,0,0,1,.46-.46h1.29a.46.46,0,0,1,.46.46v.39A2.75,2.75,0,0,1,138.64,4.75Z"/><g id="XMLID_20" data-name="XMLID 20"><g id="XMLID_24" data-name="XMLID 24"><g id="XMLID_71" data-name="XMLID 71"><g id="XMLID_75" data-name="XMLID 75"><path id="path19_fill" data-name="path19 fill" class="cls-1" d="M153.8,8.63c.2.2.15-.17.2-.42.1-.49.2-1,.27-1.46l.59-3.11-.91.12a28.67,28.67,0,0,1,2,4.74c.25-.2.49-.37.71-.57-1.5-.81-3-1.6-4.48-2.42-.07.3-.17.62-.25.91a11,11,0,0,0,5.29-1.36l-.66-.67a33.65,33.65,0,0,1-3.52,4.22l.81.47A18.64,18.64,0,0,1,155,6.36L154.07,6c-.07.22-.12.44-.2.67-.12.44.49.89.81.47a4.94,4.94,0,0,1,1-.94l-.76-.59a1.51,1.51,0,0,0,.3,2l.59-.77c-.91-.39-1-1.33-.91-2.2,0-.64-.94-.64-1,0-.1,1.23.15,2.52,1.4,3.06.47.2,1.06-.37.59-.77l-.15-.81c.32-.52-.37-.91-.76-.59a5.76,5.76,0,0,0-1,.94l.81.47c.07-.22.12-.44.2-.67a.5.5,0,0,0-.91-.37,16.89,16.89,0,0,0-1.18,3c-.15.44.49.86.81.47a34.9,34.9,0,0,0,3.67-4.42.49.49,0,0,0-.66-.67,9.93,9.93,0,0,1-4.8,1.23.49.49,0,0,0-.25.91c1.5.81,3,1.6,4.48,2.42a.49.49,0,0,0,.71-.57,30.73,30.73,0,0,0-2.14-5,.51.51,0,0,0-.91.12c-.27,1.46-.54,2.91-.84,4.34-.1.49-.39,1.18,0,1.58S154.24,9.07,153.8,8.63Z"/></g></g></g><g id="XMLID_23" data-name="XMLID 23"><g id="XMLID_65" data-name="XMLID 65"><g id="XMLID_69" data-name="XMLID 69"><path id="path20_fill" data-name="path20 fill" class="cls-1" d="M160.32,11.72a.73.73,0,0,0,0-1.46A.73.73,0,0,0,160.32,11.72Z"/></g></g></g><g id="XMLID_22" data-name="XMLID 22"><g id="XMLID_59" data-name="XMLID 59"><g id="XMLID_63" data-name="XMLID 63"><path id="path21_fill" data-name="path21 fill" class="cls-1" d="M160.12,7.72a.73.73,0,0,0,0-1.46A.73.73,0,0,0,160.12,7.72Z"/></g></g></g><g id="XMLID_21" data-name="XMLID 21"><g id="XMLID_53" data-name="XMLID 53"><g id="XMLID_57" data-name="XMLID 57"><path id="path22_fill" data-name="path22 fill" class="cls-1" d="M163.3,9.91a.73.73,0,0,0,0-1.46A.73.73,0,0,0,163.3,9.91Z"/></g></g></g></g><g id="XMLID_25" data-name="XMLID 25"><g id="XMLID_29" data-name="XMLID 29"><g id="XMLID_95" data-name="XMLID 95"><g id="XMLID_99" data-name="XMLID 99"><path id="path15_fill" data-name="path15 fill" class="cls-1" d="M4,6a29,29,0,0,0,3.81-.85A.68.68,0,0,0,7.4,3.8a27.55,27.55,0,0,1-3.81.85C2.74,4.79,3.11,6.1,4,6Z"/></g></g></g><g id="XMLID_28" data-name="XMLID 28"><g id="XMLID_89" data-name="XMLID 89"><g id="XMLID_93" data-name="XMLID 93"><path id="path16_fill" data-name="path16 fill" class="cls-1" d="M4,2A34.27,34.27,0,0,1,6.42,9c.2.85,1.5.48,1.31-.37A35.36,35.36,0,0,0,5.18,1.33C4.81.57,3.63,1.25,4,2Z"/></g></g></g><g id="XMLID_27" data-name="XMLID 27"><g id="XMLID_83" data-name="XMLID 83"><g id="XMLID_87" data-name="XMLID 87"><path id="path17_fill" data-name="path17 fill" class="cls-1" d="M3.07,11.12a.68.68,0,0,0,0-1.35A.68.68,0,0,0,3.07,11.12Z"/></g></g></g><g id="XMLID_26" data-name="XMLID 26"><g id="XMLID_77" data-name="XMLID 77"><g id="XMLID_81" data-name="XMLID 81"><path id="path18_fill" data-name="path18 fill" class="cls-1" d="M5,14a.68.68,0,0,0,0-1.35A.68.68,0,0,0,5,14Z"/></g></g></g></g></svg>