<svg width="122" height="36" viewBox="0 0 122 36" fill="none" xmlns="http://www.w3.org/2000/svg">
<path d="M47.1991 13.0296C46.4613 13.0296 45.9607 12.6607 45.9607 12.0547C45.9607 11.4926 46.4174 11.115 47.2342 11.0535L48.9731 10.9393V11.598C48.9731 12.4499 48.1476 13.0296 47.1991 13.0296ZM46.0925 15.1725C47.243 15.1725 48.4111 14.6368 48.9292 13.6707H48.9907V15.032H52.0207V8.47144C52.0207 6.54806 50.3257 5.23946 47.7699 5.23946C45.1 5.23946 43.4314 6.5305 43.3435 8.48901H46.1452C46.233 7.90058 46.7687 7.46145 47.6118 7.46145C48.4286 7.46145 48.9731 7.88301 48.9731 8.64709V9.19161L46.7336 9.32335C44.2569 9.47265 42.8781 10.4739 42.8781 12.2655C42.8781 13.9957 44.3184 15.1725 46.0925 15.1725Z" fill="#242E35"/>
<path d="M59.5737 5.32729C58.1948 5.32729 57.1585 6.02111 56.6754 7.17162H56.614V5.46781H53.5137V18.1235H56.6315V13.3984H56.693C57.1585 14.5051 58.2124 15.1725 59.6176 15.1725C61.9977 15.1725 63.3941 13.3721 63.3941 10.2543C63.3941 7.12771 61.9889 5.32729 59.5737 5.32729ZM58.4144 12.7398C57.3166 12.7398 56.6227 11.7737 56.614 10.2543C56.6227 8.7437 57.3253 7.76006 58.4144 7.76006C59.5122 7.76006 60.2148 8.73492 60.2148 10.2543C60.2148 11.7737 59.521 12.7398 58.4144 12.7398Z" fill="#242E35"/>
<path d="M70.6748 5.32729C69.2959 5.32729 68.2596 6.02111 67.7766 7.17162H67.7151V5.46781H64.6149V18.1235H67.7327V13.3984H67.7941C68.2596 14.5051 69.3135 15.1725 70.7187 15.1725C73.0988 15.1725 74.4952 13.3721 74.4952 10.2543C74.4952 7.12771 73.09 5.32729 70.6748 5.32729ZM69.5155 12.7398C68.4177 12.7398 67.7239 11.7737 67.7151 10.2543C67.7239 8.7437 68.4265 7.76006 69.5155 7.76006C70.6133 7.76006 71.3159 8.73492 71.3159 10.2543C71.3159 11.7737 70.6221 12.7398 69.5155 12.7398Z" fill="#242E35"/>
<path d="M79.9931 15.032H83.1109V7.76006H84.885V5.53807H83.0231V5.12529C83.0231 4.57199 83.3832 4.23825 84.2351 4.23825C84.481 4.23825 84.7444 4.2646 84.9201 4.29095V2.35879C84.5776 2.28853 83.9628 2.22705 83.4095 2.22705C80.9065 2.22705 79.9931 3.09652 79.9931 4.98477V5.53807H78.7196V7.76006H79.9931V15.032Z" fill="#242E35"/>
<path d="M90.5409 15.2603C93.5533 15.2603 95.4328 13.4424 95.4328 10.2455C95.4328 7.11015 93.527 5.23946 90.5409 5.23946C87.5724 5.23946 85.649 7.11893 85.649 10.2455C85.649 13.4336 87.5285 15.2603 90.5409 15.2603ZM90.5409 12.9769C89.4695 12.9769 88.8108 12.002 88.8108 10.2543C88.8108 8.53292 89.487 7.52293 90.5409 7.52293C91.6036 7.52293 92.2799 8.53292 92.2799 10.2543C92.2799 12.002 91.6036 12.9769 90.5409 12.9769Z" fill="#242E35"/>
<path d="M96.636 15.032H99.7538V9.9996C99.7538 8.66466 100.465 7.92692 101.774 7.92692C102.143 7.92692 102.503 7.99718 102.766 8.10257V5.45025C102.555 5.3712 102.292 5.32729 101.976 5.32729C100.852 5.32729 100.079 5.98598 99.7275 7.27701H99.666V5.46781H96.636V15.032Z" fill="#242E35"/>
<path d="M43.2645 33.0187H46.3735V23.4545H43.2645V33.0187ZM44.819 22.6816C45.7236 22.6816 46.4086 22.0141 46.4086 21.1534C46.4086 20.2927 45.7236 19.6341 44.819 19.6341C43.9144 19.6341 43.2206 20.2927 43.2206 21.1534C43.2206 22.0141 43.9144 22.6816 44.819 22.6816Z" fill="#242E35"/>
<path d="M47.8929 33.0187H51.0107V27.6086C51.0107 26.5547 51.6255 25.8082 52.6179 25.8082C53.6367 25.8082 54.1548 26.4581 54.1548 27.5471V33.0187H57.2639V26.8797C57.2639 24.605 56.0782 23.27 53.9441 23.27C52.4774 23.27 51.4762 23.9814 50.9843 25.2549H50.9229V23.4545H47.8929V33.0187Z" fill="#242E35"/>
<path d="M59.5122 21.3115V23.4545H58.2124V25.7467H59.5122V30.3927C59.5122 32.2721 60.4958 33.0362 62.9813 33.0362C63.5873 33.0362 64.044 32.9835 64.3426 32.9221V30.7088C64.1582 30.744 63.9737 30.7528 63.7278 30.7528C62.9813 30.7528 62.63 30.419 62.63 29.7603V25.7467H64.3514V23.4545H62.63V21.3115H59.5122Z" fill="#242E35"/>
<path d="M70.0864 25.4393C71.07 25.4393 71.7638 26.1244 71.8165 27.1431H68.3387C68.4177 26.1507 69.1291 25.4393 70.0864 25.4393ZM71.8868 29.9975C71.6672 30.6474 71.0173 31.0426 70.183 31.0426C69.0588 31.0426 68.2947 30.2522 68.2947 29.1104V28.9172H74.7499V28.039C74.7499 25.1144 72.9144 23.2261 70.0337 23.2261C67.1091 23.2261 65.2735 25.1934 65.2735 28.2849C65.2735 31.3763 67.0915 33.247 70.1391 33.247C72.6421 33.247 74.3986 31.9735 74.6972 29.9975H71.8868Z" fill="#242E35"/>
<path d="M75.9619 33.0187H79.0797V27.9863C79.0797 26.6513 79.7911 25.9136 81.0997 25.9136C81.4686 25.9136 81.8286 25.9838 82.0921 26.0892V23.4369C81.8813 23.3579 81.6179 23.3139 81.3017 23.3139C80.1775 23.3139 79.4047 23.9726 79.0534 25.2637H78.9919V23.4545H75.9619V33.0187Z" fill="#242E35"/>
<path d="M92.236 23.4545H88.9776L87.3441 30.4102H87.2826L85.6139 23.4545H82.2678L85.4734 33.0187H89.0655L92.236 23.4545Z" fill="#242E35"/>
<path d="M92.9913 33.0187H96.1003V23.4545H92.9913V33.0187ZM94.5458 22.6816C95.4504 22.6816 96.1354 22.0141 96.1354 21.1534C96.1354 20.2927 95.4504 19.6341 94.5458 19.6341C93.6412 19.6341 92.9473 20.2927 92.9473 21.1534C92.9473 22.0141 93.6412 22.6816 94.5458 22.6816Z" fill="#242E35"/>
<path d="M102.143 25.4393C103.126 25.4393 103.82 26.1244 103.873 27.1431H100.395C100.474 26.1507 101.185 25.4393 102.143 25.4393ZM103.943 29.9975C103.724 30.6474 103.074 31.0426 102.239 31.0426C101.115 31.0426 100.351 30.2522 100.351 29.1104V28.9172H106.806V28.039C106.806 25.1144 104.971 23.2261 102.09 23.2261C99.1654 23.2261 97.3298 25.1934 97.3298 28.2849C97.3298 31.3763 99.1478 33.247 102.195 33.247C104.698 33.247 106.455 31.9735 106.754 29.9975H103.943Z" fill="#242E35"/>
<path d="M122 23.4545H118.926L117.714 30.2082H117.653L116.177 23.4545H113.2L111.742 30.2082H111.681L110.46 23.4545H107.316L109.801 33.0187H113.103L114.596 26.5811H114.658L116.177 33.0187H119.532L122 23.4545Z" fill="#242E35"/>
<path d="M16.5753 0.234619C8.81986 0.234619 4.60697 5.82759 4.60697 11.5922C4.60697 15.5909 6.29445 17.8132 8.7021 19.4572C4.60697 21.4481 1.51374 23.6484 0.417985 27.8408C-0.00193301 29.4474 -0.00106833 31.835 0.000124283 34.3956L0.000253971 34.8169H6.07412C6.07412 31.6549 6.099 30.6552 6.29445 29.9074C6.91446 27.5352 8.76702 25.6826 11.1392 25.0626C11.7832 24.8943 12.6139 24.8525 14.8514 24.8441V24.2978C14.8514 22.1623 14.8865 20.5614 15.3631 19.0601L14.9924 18.7682H14.9909C14.9167 18.7123 14.8409 18.6555 14.7636 18.5976C14.1471 18.1356 13.4349 17.6018 12.6378 16.8899C10.8824 15.3199 10.2242 14.239 10.2242 11.4177C10.2242 8.59647 12.6983 5.46805 17.2502 5.46805L17.68 5.46805C22.1931 5.46805 24.7026 8.61269 24.7026 11.4232C24.7026 14.2309 23.2551 15.3334 21.7783 16.4581L21.7736 16.4618C21.394 16.7509 21.0126 17.0414 20.6539 17.3622C17.6259 20.0661 17.5154 21.449 17.5154 24.516V24.89H22.9571V23.7332C22.9571 21.4276 23.3862 21.0796 24.8091 19.9257L24.8096 19.9252C25.0014 19.7697 25.2115 19.5993 25.4408 19.4076C25.6214 19.2567 25.8051 19.1065 25.9901 18.9552L26.1615 18.8152C28.0837 17.2466 30.3232 15.4191 30.3232 11.5922C30.3232 5.88959 25.6164 0.461608 18.1399 0.241361L18.8148 0.234619H16.5753Z" fill="#242E35"/>
<path d="M20.2536 35.2395C22.2038 35.2395 23.7447 33.7406 23.7447 31.861C23.7447 29.9814 22.2038 28.5063 20.2536 28.5063C18.3034 28.5063 16.7384 29.9814 16.7384 31.861C16.7384 33.7406 18.3034 35.2395 20.2536 35.2395Z" fill="#242E35"/>
</svg>
